<?xml version="1.0" standalone="no"?>
<!DOCTYPE svg PUBLIC "-//W3C//DTD SVG 20010904//EN"
 "http://www.w3.org/TR/2001/REC-SVG-20010904/DTD/svg10.dtd">
<svg version="1.0" xmlns="http://www.w3.org/2000/svg"
 width="1600.000000pt" height="600.000000pt" viewBox="0 0 1600.000000 600.000000"
 preserveAspectRatio="xMidYMid meet">

<g transform="translate(0.000000,600.000000) scale(0.100000,-0.100000)"
fill="#000000" stroke="none">
<path d="M1955 4788 c-3 -7 -4 -353 -3 -768 l3 -755 570 0 570 0 3 43 c2 24
-2 50 -9 58 -10 12 -91 14 -515 14 l-504 0 0 688 c0 378 -3 697 -6 710 -6 19
-13 22 -55 22 -31 0 -51 -5 -54 -12z"/>
<path d="M4287 4794 c-10 -10 -8 -1506 2 -1522 5 -9 25 -12 57 -10 l49 3 0
765 0 765 -50 3 c-28 2 -54 0 -58 -4z"/>
<path d="M5571 4781 c-12 -21 -16 -1457 -5 -1498 l6 -23 569 0 569 0 0 54 c0
40 -4 55 -16 60 -9 3 -240 6 -515 6 l-499 0 -2 708 -3 707 -47 3 c-38 2 -49
-1 -57 -17z"/>
<path d="M7915 4788 c-3 -7 -4 -353 -3 -768 l3 -755 570 0 570 0 3 49 c2 32
-1 52 -10 57 -7 5 -239 9 -515 9 l-503 0 0 694 c0 382 -3 701 -6 710 -8 20
-102 23 -109 4z"/>
<path d="M11316 4784 c-3 -9 -6 -239 -6 -513 0 -532 -1 -545 -52 -645 -26 -52
-109 -138 -167 -175 -83 -53 -163 -74 -272 -69 -87 3 -103 7 -172 41 -128 63
-218 168 -258 300 l-21 67 -42 0 c-74 0 -81 -27 -40 -142 58 -159 155 -267
306 -338 88 -42 155 -53 283 -48 87 4 124 11 178 31 164 64 298 204 354 372
l27 80 4 507 c2 358 0 513 -8 527 -8 17 -20 21 -59 21 -35 0 -51 -4 -55 -16z"/>
<path d="M12635 4788 c-3 -7 -4 -353 -3 -768 l3 -755 564 -3 c445 -2 566 0
573 10 12 20 9 83 -4 96 -9 9 -137 12 -515 12 l-503 0 0 295 0 295 480 0 c477
0 479 0 491 21 14 27 3 85 -17 93 -9 3 -227 6 -485 6 l-469 0 0 295 0 295 503
0 c378 0 506 3 515 12 13 13 16 66 6 92 -6 14 -65 16 -570 16 -443 0 -566 -3
-569 -12z"/>
<path d="M1680 2640 c0 -20 7 -20 6315 -20 6308 0 6315 0 6315 20 0 20 -7 20
-6315 20 -6308 0 -6315 0 -6315 -20z"/>
<path d="M2271 2074 c-98 -35 -183 -114 -228 -209 -25 -54 -28 -71 -28 -165 0
-88 4 -113 23 -154 104 -226 384 -306 586 -167 62 43 66 56 25 90 l-33 28 -46
-32 c-58 -42 -100 -55 -170 -55 -117 0 -215 62 -267 168 -69 141 -6 315 143
391 91 47 210 34 297 -33 l45 -34 33 34 33 34 -24 25 c-13 14 -54 40 -89 58
-58 28 -76 32 -161 34 -67 2 -108 -2 -139 -13z"/>
<path d="M3587 2066 c-157 -66 -242 -197 -242 -371 0 -77 5 -99 28 -148 36
-79 77 -128 140 -170 149 -99 346 -85 478 32 33 29 69 75 90 113 33 61 34 66
34 178 0 97 -4 122 -23 163 -30 67 -120 158 -189 192 -50 25 -72 29 -158 32
-88 3 -107 1 -158 -21z m265 -95 c57 -27 122 -92 150 -150 31 -65 31 -167 -1
-238 -27 -60 -93 -126 -154 -154 -53 -23 -156 -25 -221 -3 -55 19 -133 91
-161 149 -29 60 -33 180 -7 237 35 81 114 153 193 177 51 15 151 7 201 -18z"/>
<path d="M4840 1699 l0 -390 48 3 47 3 5 286 5 286 175 -288 175 -289 57 0 58
0 0 390 0 390 -50 0 -50 0 -2 -305 -3 -305 -183 305 -183 305 -50 0 -49 0 0
-391z"/>
<path d="M6272 2064 c-112 -56 -143 -205 -63 -297 16 -18 81 -65 145 -106 64
-40 123 -82 131 -94 26 -38 19 -85 -19 -123 -31 -31 -40 -34 -90 -34 -50 0
-61 4 -92 33 -22 19 -38 46 -43 67 -6 33 -9 35 -54 38 -43 3 -47 1 -47 -20 0
-86 77 -183 162 -207 102 -29 219 9 263 84 40 67 42 128 8 195 -26 51 -38 61
-155 135 -129 82 -158 111 -158 162 0 41 23 69 75 88 38 15 51 16 92 6 27 -7
56 -20 66 -28 16 -15 20 -14 52 17 41 39 37 49 -37 86 -68 34 -165 34 -236 -2z"/>
<path d="M7332 1813 c3 -316 7 -332 88 -413 63 -63 119 -85 215 -85 96 0 152
22 215 85 81 81 85 97 88 413 l3 277 -50 0 -50 0 -3 -274 -3 -274 -30 -44
c-43 -60 -96 -88 -168 -88 -88 0 -151 39 -191 117 -14 27 -16 73 -16 298 l0
265 -51 0 -50 0 3 -277z"/>
<path d="M8670 1700 l0 -390 240 0 240 0 20 40 c11 23 18 45 15 50 -4 6 -90
10 -211 10 l-204 0 0 340 0 340 -50 0 -50 0 0 -390z"/>
<path d="M9800 2045 l0 -45 120 0 120 0 0 -345 0 -345 50 0 50 0 0 345 0 345
75 0 c72 0 76 1 115 36 22 20 40 40 40 45 0 5 -127 9 -285 9 l-285 0 0 -45z"/>
<path d="M11042 1703 l3 -388 48 -3 47 -3 0 390 0 391 -50 0 -50 0 2 -387z"/>
<path d="M11890 1700 l0 -390 45 0 45 0 2 294 3 293 176 -291 176 -291 56 -3
57 -3 0 391 0 390 -45 0 -45 0 0 -307 c-1 -253 -3 -305 -13 -291 -8 9 -92 147
-188 307 l-174 291 -47 0 -48 0 0 -390z"/>
<path d="M13441 2070 c-93 -34 -167 -103 -218 -201 -26 -50 -28 -63 -28 -169
0 -107 2 -119 29 -173 33 -64 112 -144 172 -175 135 -68 319 -47 426 47 l43
39 3 156 3 156 -190 0 c-105 0 -191 -2 -191 -5 0 -3 12 -23 26 -45 l27 -40
113 0 114 0 0 -89 c0 -90 0 -90 -32 -114 -75 -55 -199 -65 -286 -21 -183 91
-227 315 -90 460 109 115 247 133 375 49 29 -19 56 -35 61 -35 5 0 21 14 38
31 l29 30 -35 30 c-71 59 -136 82 -240 86 -76 3 -106 -1 -149 -17z"/>
</g>
</svg>
